<?xml version="1.0" standalone="no"?>
<!DOCTYPE svg PUBLIC "-//W3C//DTD SVG 20010904//EN"
 "http://www.w3.org/TR/2001/REC-SVG-20010904/DTD/svg10.dtd">
<svg version="1.0" xmlns="http://www.w3.org/2000/svg"
 width="512.000000pt" height="256.000000pt" viewBox="0 0 512.000000 256.000000"
 preserveAspectRatio="xMidYMid meet">

<g transform="translate(0.000000,256.000000) scale(0.100000,-0.100000)"
fill="#000000" stroke="none">
<path d="M2010 2021 c0 -20 5 -21 163 -21 199 0 277 -12 339 -49 l46 -29 34
22 c63 43 96 49 306 54 193 4 202 5 202 24 0 19 -7 20 -212 16 -208 -3 -214
-4 -273 -31 l-61 -28 -59 28 c-59 27 -64 28 -272 31 -210 3 -213 3 -213 -17z"/>
<path d="M2010 1521 c0 -259 4 -430 11 -463 36 -176 190 -358 399 -472 132
-71 126 -71 219 -26 210 102 354 245 433 430 23 54 23 60 26 498 l3 443 -218
-3 c-214 -3 -219 -4 -273 -30 l-55 -27 -55 27 c-54 26 -59 27 -272 30 l-218 3
0 -410z m427 354 c27 -8 65 -25 84 -38 l34 -23 34 23 c65 44 124 54 302 51
l164 -3 3 -365 c2 -234 -1 -389 -9 -432 -30 -185 -178 -360 -403 -478 -92 -48
-96 -48 -204 12 -160 88 -279 208 -346 348 l-31 65 -3 428 -3 427 164 0 c116
0 178 -4 214 -15z"/>
<path d="M2540 1710 c0 -5 -13 -10 -30 -10 -30 0 -30 0 -30 -59 0 -58 1 -60
28 -63 19 -2 28 -9 30 -25 2 -16 -2 -23 -12 -23 -20 0 -21 -36 -1 -44 12 -4
15 -25 15 -97 0 -69 -3 -90 -12 -86 -7 3 -78 46 -158 96 -120 76 -145 89 -153
76 -5 -10 -4 -21 2 -29 8 -9 7 -18 -4 -32 -35 -47 3 -74 40 -28 18 22 26 26
35 18 9 -9 8 -18 -6 -39 -16 -25 -16 -27 0 -43 15 -15 18 -15 26 -2 31 53 29
53 123 -7 l89 -56 -84 -53 c-45 -30 -87 -54 -92 -54 -5 0 -19 11 -32 25 -48
52 -134 18 -134 -53 0 -35 59 -136 85 -146 32 -12 75 -6 95 14 21 21 27 74 10
100 -7 12 8 26 73 67 45 29 85 53 90 53 4 0 7 -56 7 -125 0 -104 -2 -125 -15
-125 -8 0 -15 -7 -15 -15 0 -8 -7 -15 -16 -15 -25 0 -74 -56 -74 -84 0 -42 22
-77 62 -97 129 -66 283 58 189 152 -16 16 -37 29 -45 29 -9 0 -16 7 -16 15 0
8 -7 15 -15 15 -13 0 -15 21 -15 125 0 70 4 125 9 125 5 0 45 -23 89 -51 l80
-51 -16 -28 c-32 -56 24 -129 88 -115 25 5 40 20 71 68 54 86 51 131 -11 157
-34 14 -84 0 -94 -27 -4 -9 -14 -13 -24 -11 -23 7 -162 97 -162 106 1 4 39 30
85 59 l84 51 19 -29 c16 -26 20 -27 36 -16 17 13 17 16 2 44 -14 27 -14 32 0
37 9 4 21 -5 33 -24 16 -27 19 -28 37 -16 18 14 18 16 2 44 -12 20 -14 32 -7
39 7 7 8 17 2 27 -7 13 -33 0 -153 -76 -80 -50 -151 -93 -157 -95 -10 -4 -13
18 -13 91 0 79 3 96 15 96 8 0 15 9 15 20 0 12 -7 20 -16 20 -10 0 -14 7 -12
23 2 16 11 23 31 25 26 3 27 5 27 63 0 59 0 59 -30 59 -16 0 -30 5 -30 10 0 6
-9 10 -20 10 -11 0 -20 -4 -20 -10z m60 -75 c0 -11 -11 -15 -40 -15 -29 0 -40
4 -40 15 0 11 11 15 40 15 29 0 40 -4 40 -15z m-286 -538 c23 -38 28 -52 19
-65 -19 -30 -46 -19 -80 31 -27 40 -31 53 -22 69 17 32 50 18 83 -35z m574 23
c3 -29 -50 -110 -71 -110 -17 0 -37 20 -37 38 0 7 14 34 31 58 35 52 72 58 77
14z m-340 -242 c9 -9 15 -9 24 0 20 20 56 14 74 -13 15 -23 15 -27 0 -50 -16
-25 -66 -36 -66 -15 0 6 -9 10 -20 10 -11 0 -20 -5 -20 -11 0 -6 -14 -9 -32
-7 -43 4 -61 47 -33 78 20 22 55 26 73 8z"/>
</g>
</svg>
